{"asset":{"version":"2.0","generator":"babylon.js glTF exporter for maya 2018 v1.2.30"},"scene":0,"scenes":[{"nodes":[0],"extensions":{}}],"nodes":[{"mesh":0,"translation":[-23.0836258,-86.10169,0.0],"rotation":[0.0,0.0,0.0,1.0],"scale":[0.0959248841,0.0959248841,0.09096788],"name":"solarf_panel_2"}],"meshes":[{"primitives":[{"attributes":{"POSITION":1,"NORMAL":2,"TANGENT":3,"TEXCOORD_0":4},"indices":0,"mode":4,"material":0},{"attributes":{"POSITION":6,"NORMAL":7,"TANGENT":8,"TEXCOORD_0":9},"indices":5,"mode":4,"material":1}],"name":"solarf_panel_2"}],"accessors":[{"bufferView":0,"componentType":5123,"count":780,"type":"SCALAR","name":"accessorIndices"},{"bufferView":1,"componentType":5126,"count":428,"max":[1148.75476,1347.2688,406.6056],"min":[613.350037,571.873962,-981.2363],"type":"VEC3","name":"accessorPositions"},{"bufferView":1,"byteOffset":5136,"componentType":5126,"count":428,"type":"VEC3","name":"accessorNormals"},{"bufferView":2,"componentType":5126,"count":428,"type":"VEC4","name":"accessorTangents"},{"bufferView":3,"componentType":5126,"count":428,"type":"VEC2","name":"accessorUVs"},{"bufferView":0,"byteOffset":1560,"componentType":5123,"count":5880,"type":"SCALAR","name":"accessorIndices"},{"bufferView":1,"byteOffset":10272,"componentType":5126,"count":1176,"max":[1096.91833,1331.26526,398.704376],"min":[629.5205,880.3815,-973.3351],"type":"VEC3","name":"accessorPositions"},{"bufferView":1,"byteOffset":24384,"componentType":5126,"count":1176,"type":"VEC3","name":"accessorNormals"},{"bufferView":2,"byteOffset":6848,"componentType":5126,"count":1176,"type":"VEC4","name":"accessorTangents"},{"bufferView":3,"byteOffset":3424,"componentType":5126,"count":1176,"type":"VEC2","name":"accessorUVs"},{"bufferView":4,"componentType":5126,"count":2,"max":[16.625],"min":[0.0],"type":"SCALAR","name":"accessorAnimationInput"},{"bufferView":5,"componentType":5126,"count":2,"type":"VEC3","name":"accessorAnimationScales"},{"bufferView":4,"byteOffset":8,"componentType":5126,"count":2,"max":[16.625],"min":[0.0],"type":"SCALAR","name":"accessorAnimationInput"},{"bufferView":5,"byteOffset":24,"componentType":5126,"count":2,"type":"VEC3","name":"accessorAnimationPositions"}],"bufferViews":[{"buffer":0,"byteLength":13320,"name":"bufferViewScalar"},{"buffer":0,"byteOffset":13320,"byteLength":38496,"byteStride":12,"name":"bufferViewFloatVec3"},{"buffer":0,"byteOffset":51816,"byteLength":25664,"byteStride":16,"name":"bufferViewFloatVec4"},{"buffer":0,"byteOffset":77480,"byteLength":12832,"byteStride":8,"name":"bufferViewFloatVec2"},{"buffer":0,"byteOffset":90312,"byteLength":16,"name":"bufferViewAnimationFloatScalar"},{"buffer":0,"byteOffset":90328,"byteLength":48,"name":"bufferViewAnimationFloatVec3"}],"buffers":[{"uri":"SF1.bin","byteLength":90376}],"materials":[{"pbrMetallicRoughness":{"baseColorFactor":[0.909889638,0.909889638,0.909889638,1.0],"metallicFactor":0.0,"roughnessFactor":0.9},"emissiveFactor":[0.0,0.0,0.0],"alphaMode":"OPAQUE","name":"lambert1"},{"pbrMetallicRoughness":{"baseColorFactor":[0.5,0.5,0.5,1.0],"metallicFactor":1.0,"roughnessFactor":0.3},"emissiveFactor":[0.0,0.0,0.0],"alphaMode":"OPAQUE","name":"blinn1"}],"animations":[{"channels":[{"sampler":0,"target":{"node":0,"path":"scale"}},{"sampler":1,"target":{"node":0,"path":"translation"}}],"samplers":[{"input":10,"interpolation":"LINEAR","output":11},{"input":12,"interpolation":"LINEAR","output":13}],"name":"All Animations"}]}