{"asset":{"version":"2.0","generator":"babylon.js glTF exporter for maya 2018 v1.2.30"},"scene":0,"scenes":[{"nodes":[0,2,3],"extensions":{}}],"nodes":[{"children":[1],"translation":[18.1720562,7.25551653,-23.340498],"rotation":[0.0,0.0,0.0,1.0],"scale":[10.593915,10.593915,10.593915],"name":"group2"},{"mesh":0,"translation":[-3.3657155,11.3712931,-0.8174844],"rotation":[0.707106769,0.0,0.0,0.707106769],"scale":[0.560302138,0.0280399825,0.5],"name":"pCylinder1"},{"mesh":1,"translation":[-21.04436,12.2067795,-9.56358],"rotation":[0.0142908283,0.44503215,-0.00591617543,0.895381033],"scale":[0.405830383,0.397050381,0.405830383],"name":"caja"},{"children":[4],"translation":[0.0,0.0,0.0],"rotation":[0.0,0.0,0.0,1.0],"scale":[1.0,1.0,1.0],"name":"group3"},{"children":[5],"translation":[18.1720562,7.25551653,-23.340498],"rotation":[0.0,0.0,0.0,1.0],"scale":[10.593915,10.593915,10.593915],"name":"pasted__group2"},{"mesh":2,"translation":[0.703959346,16.179142,-0.2298824],"rotation":[-0.421213269,0.0344320424,0.9032948,0.0738397539],"scale":[0.056,0.0558673479,0.0558673479],"name":"pasted__turbina_2"}],"meshes":[{"primitives":[{"attributes":{"POSITION":1,"NORMAL":2,"TANGENT":3,"TEXCOORD_0":4},"indices":0,"mode":4,"material":0}],"name":"pCylinder1"},{"primitives":[{"attributes":{"POSITION":6,"NORMAL":7,"TANGENT":8,"TEXCOORD_0":9},"indices":5,"mode":4,"material":0}],"name":"caja"},{"primitives":[{"attributes":{"POSITION":11,"NORMAL":12,"TANGENT":13,"TEXCOORD_0":14},"indices":10,"mode":4,"material":1},{"attributes":{"POSITION":16,"NORMAL":17,"TANGENT":18,"TEXCOORD_0":19},"indices":15,"mode":4,"material":2}],"name":"pasted__turbina_2"}],"accessors":[{"bufferView":0,"componentType":5123,"count":240,"type":"SCALAR","name":"accessorIndices"},{"bufferView":1,"componentType":5126,"count":84,"max":[1.0,1.0,1.00000012],"min":[-1.00000024,-1.0,-1.00000048],"type":"VEC3","name":"accessorPositions"},{"bufferView":1,"byteOffset":1008,"componentType":5126,"count":84,"type":"VEC3","name":"accessorNormals"},{"bufferView":2,"componentType":5126,"count":84,"type":"VEC4","name":"accessorTangents"},{"bufferView":3,"componentType":5126,"count":84,"type":"VEC2","name":"accessorUVs"},{"bufferView":0,"byteOffset":480,"componentType":5123,"count":35589,"type":"SCALAR","name":"accessorIndices"},{"bufferView":1,"byteOffset":2016,"componentType":5126,"count":22239,"max":[103.0356,301.6897,-22.918],"min":[40.8356438,-258.912476,-82.83628],"type":"VEC3","name":"accessorPositions"},{"bufferView":1,"byteOffset":268884,"componentType":5126,"count":22239,"type":"VEC3","name":"accessorNormals"},{"bufferView":2,"byteOffset":1344,"componentType":5126,"count":22239,"type":"VEC4","name":"accessorTangents"},{"bufferView":3,"byteOffset":672,"componentType":5126,"count":22239,"type":"VEC2","name":"accessorUVs"},{"bufferView":0,"byteOffset":71660,"componentType":5123,"count":49614,"type":"SCALAR","name":"accessorIndices"},{"bufferView":1,"byteOffset":535752,"componentType":5126,"count":17040,"max":[107.035477,204.9373,124.01078],"min":[-15.4855089,36.9401665,-19.446764],"type":"VEC3","name":"accessorPositions"},{"bufferView":1,"byteOffset":740232,"componentType":5126,"count":17040,"type":"VEC3","name":"accessorNormals"},{"bufferView":2,"byteOffset":357168,"componentType":5126,"count":17040,"type":"VEC4","name":"accessorTangents"},{"bufferView":3,"byteOffset":178584,"componentType":5126,"count":17040,"type":"VEC2","name":"accessorUVs"},{"bufferView":0,"byteOffset":170888,"componentType":5123,"count":1620,"type":"SCALAR","name":"accessorIndices"},{"bufferView":1,"byteOffset":944712,"componentType":5126,"count":1188,"max":[118.799026,221.8089,138.064529],"min":[-23.5898018,27.6195145,-29.1422882],"type":"VEC3","name":"accessorPositions"},{"bufferView":1,"byteOffset":958968,"componentType":5126,"count":1188,"type":"VEC3","name":"accessorNormals"},{"bufferView":2,"byteOffset":629808,"componentType":5126,"count":1188,"type":"VEC4","name":"accessorTangents"},{"bufferView":3,"byteOffset":314904,"componentType":5126,"count":1188,"type":"VEC2","name":"accessorUVs"},{"bufferView":4,"componentType":5126,"count":2,"max":[16.625],"min":[0.0],"type":"SCALAR","name":"accessorAnimationInput"},{"bufferView":5,"componentType":5126,"count":2,"type":"VEC3","name":"accessorAnimationScales"},{"bufferView":4,"byteOffset":8,"componentType":5126,"count":2,"max":[16.625],"min":[0.0],"type":"SCALAR","name":"accessorAnimationInput"},{"bufferView":5,"byteOffset":24,"componentType":5126,"count":2,"type":"VEC3","name":"accessorAnimationPositions"},{"bufferView":4,"byteOffset":16,"componentType":5126,"count":2,"max":[16.625],"min":[0.0],"type":"SCALAR","name":"accessorAnimationInput"},{"bufferView":5,"byteOffset":48,"componentType":5126,"count":2,"type":"VEC3","name":"accessorAnimationScales"},{"bufferView":4,"byteOffset":24,"componentType":5126,"count":2,"max":[16.625],"min":[0.0],"type":"SCALAR","name":"accessorAnimationInput"},{"bufferView":6,"componentType":5126,"count":2,"type":"VEC4","name":"accessorAnimationRotations"},{"bufferView":4,"byteOffset":32,"componentType":5126,"count":2,"max":[16.625],"min":[0.0],"type":"SCALAR","name":"accessorAnimationInput"},{"bufferView":5,"byteOffset":72,"componentType":5126,"count":2,"type":"VEC3","name":"accessorAnimationPositions"},{"bufferView":4,"byteOffset":40,"componentType":5126,"count":2,"max":[16.625],"min":[0.0],"type":"SCALAR","name":"accessorAnimationInput"},{"bufferView":5,"byteOffset":96,"componentType":5126,"count":2,"type":"VEC3","name":"accessorAnimationScales"},{"bufferView":4,"byteOffset":48,"componentType":5126,"count":2,"max":[16.625],"min":[0.0],"type":"SCALAR","name":"accessorAnimationInput"},{"bufferView":6,"byteOffset":32,"componentType":5126,"count":2,"type":"VEC4","name":"accessorAnimationRotations"},{"bufferView":4,"byteOffset":56,"componentType":5126,"count":2,"max":[16.625],"min":[0.0],"type":"SCALAR","name":"accessorAnimationInput"},{"bufferView":5,"byteOffset":120,"componentType":5126,"count":2,"type":"VEC3","name":"accessorAnimationPositions"},{"bufferView":4,"byteOffset":64,"componentType":5126,"count":2,"max":[16.625],"min":[0.0],"type":"SCALAR","name":"accessorAnimationInput"},{"bufferView":5,"byteOffset":144,"componentType":5126,"count":2,"type":"VEC3","name":"accessorAnimationScales"},{"bufferView":4,"byteOffset":72,"componentType":5126,"count":2,"max":[16.625],"min":[0.0],"type":"SCALAR","name":"accessorAnimationInput"},{"bufferView":5,"byteOffset":168,"componentType":5126,"count":2,"type":"VEC3","name":"accessorAnimationPositions"},{"bufferView":4,"byteOffset":80,"componentType":5126,"count":2,"max":[16.625],"min":[0.0],"type":"SCALAR","name":"accessorAnimationInput"},{"bufferView":5,"byteOffset":192,"componentType":5126,"count":2,"type":"VEC3","name":"accessorAnimationScales"},{"bufferView":4,"byteOffset":88,"componentType":5126,"count":400,"max":[16.625],"min":[0.0],"type":"SCALAR","name":"accessorAnimationInput"},{"bufferView":6,"byteOffset":64,"componentType":5126,"count":400,"type":"VEC4","name":"accessorAnimationRotations"},{"bufferView":4,"byteOffset":1688,"componentType":5126,"count":400,"max":[16.625],"min":[0.0],"type":"SCALAR","name":"accessorAnimationInput"},{"bufferView":5,"byteOffset":216,"componentType":5126,"count":400,"type":"VEC3","name":"accessorAnimationPositions"}],"bufferViews":[{"buffer":0,"byteLength":174128,"name":"bufferViewScalar"},{"buffer":0,"byteOffset":174128,"byteLength":973224,"byteStride":12,"name":"bufferViewFloatVec3"},{"buffer":0,"byteOffset":1147352,"byteLength":648816,"byteStride":16,"name":"bufferViewFloatVec4"},{"buffer":0,"byteOffset":1796168,"byteLength":324408,"byteStride":8,"name":"bufferViewFloatVec2"},{"buffer":0,"byteOffset":2120576,"byteLength":3288,"name":"bufferViewAnimationFloatScalar"},{"buffer":0,"byteOffset":2123864,"byteLength":5016,"name":"bufferViewAnimationFloatVec3"},{"buffer":0,"byteOffset":2128880,"byteLength":6464,"name":"bufferViewAnimationFloatVec4"}],"buffers":[{"uri":"t2.bin","byteLength":2135344}],"materials":[{"pbrMetallicRoughness":{"baseColorFactor":[0.909889638,0.909889638,0.909889638,1.0],"metallicFactor":0.0,"roughnessFactor":0.9},"emissiveFactor":[0.0,0.0,0.0],"alphaMode":"OPAQUE","name":"lambert1"},{"pbrMetallicRoughness":{"baseColorFactor":[0.909889638,0.909889638,0.909889638,1.0],"metallicFactor":0.0,"roughnessFactor":0.9},"emissiveFactor":[0.0,0.0,0.0],"alphaMode":"OPAQUE","name":"pasted__lambert2"},{"pbrMetallicRoughness":{"baseColorFactor":[1.0,0.305745065,0.305745065,1.0],"metallicFactor":0.630135357,"roughnessFactor":0.734195054},"emissiveFactor":[0.0,0.0,0.0],"alphaMode":"OPAQUE","name":"pasted__blinn4"}],"animations":[{"channels":[{"sampler":0,"target":{"node":0,"path":"scale"}},{"sampler":1,"target":{"node":0,"path":"translation"}},{"sampler":2,"target":{"node":1,"path":"scale"}},{"sampler":3,"target":{"node":1,"path":"rotation"}},{"sampler":4,"target":{"node":1,"path":"translation"}},{"sampler":5,"target":{"node":2,"path":"scale"}},{"sampler":6,"target":{"node":2,"path":"rotation"}},{"sampler":7,"target":{"node":2,"path":"translation"}},{"sampler":8,"target":{"node":4,"path":"scale"}},{"sampler":9,"target":{"node":4,"path":"translation"}},{"sampler":10,"target":{"node":5,"path":"scale"}},{"sampler":11,"target":{"node":5,"path":"rotation"}},{"sampler":12,"target":{"node":5,"path":"translation"}}],"samplers":[{"input":20,"interpolation":"LINEAR","output":21},{"input":22,"interpolation":"LINEAR","output":23},{"input":24,"interpolation":"LINEAR","output":25},{"input":26,"interpolation":"LINEAR","output":27},{"input":28,"interpolation":"LINEAR","output":29},{"input":30,"interpolation":"LINEAR","output":31},{"input":32,"interpolation":"LINEAR","output":33},{"input":34,"interpolation":"LINEAR","output":35},{"input":36,"interpolation":"LINEAR","output":37},{"input":38,"interpolation":"LINEAR","output":39},{"input":40,"interpolation":"LINEAR","output":41},{"input":42,"interpolation":"LINEAR","output":43},{"input":44,"interpolation":"LINEAR","output":45}],"name":"All Animations"}]}